<svg xmlns="http://www.w3.org/2000/svg" version="1.1" xmlns:xlink="http://www.w3.org/1999/xlink" xmlns:svgjs="http://svgjs.dev/svgjs" width="1000" height="1000"><g clip-path="url(#SvgjsClipPath1044)"><rect width="1000" height="1000" fill="#ffffff"></rect><g transform="matrix(23.68421052631579,0,0,23.68421052631579,49.99999999999994,49.99999999999994)"><svg xmlns="http://www.w3.org/2000/svg" version="1.1" xmlns:xlink="http://www.w3.org/1999/xlink" xmlns:svgjs="http://svgjs.dev/svgjs" width="38" height="38"><svg width="38" height="38" viewBox="0 0 38 38" fill="none" xmlns="http://www.w3.org/2000/svg">
<path fill-rule="evenodd" clip-rule="evenodd" d="M3 9.4L12.5 3L9.81567 15.4955L4.60023 19L17.25 27.5L12.5 35L3 28.6V9.4ZM30.7634 17.2285L33.3998 19L20.75 27.5L25.5 35L35 28.6V10.5001L30.7634 17.2285Z" fill="#FF3333"></path>
<path fill-rule="evenodd" clip-rule="evenodd" d="M25.8516 18.9994H21.3516L23.6816 8.15311L16.8516 19.0004H12.3516L15.2513 5.5H24.2516H34.3516L25.8516 18.9994Z" fill="black"></path>
</svg></svg></g></g><defs><clipPath id="SvgjsClipPath1044"><rect width="1000" height="1000" x="0" y="0" rx="350" ry="350"></rect></clipPath></defs></svg>